<svg width="80" height="75" viewBox="0 0 80 75" fill="none" xmlns="http://www.w3.org/2000/svg">
<circle cx="35" cy="40" r="34.25" fill="url(#paint0_linear_712_15)" stroke="white" stroke-width="1.5"/>
<path d="M30.3663 30.3663C30.6006 30.1318 30.9185 30.0001 31.25 30H38.75C39.0815 30.0001 39.3994 30.1318 39.6337 30.3663L41.7675 32.5H45C45.663 32.5 46.2989 32.7634 46.7678 33.2322C47.2366 33.7011 47.5 34.337 47.5 35V47.5C47.5 48.163 47.2366 48.7989 46.7678 49.2678C46.2989 49.7366 45.663 50 45 50H25C24.337 50 23.7011 49.7366 23.2322 49.2678C22.7634 48.7989 22.5 48.163 22.5 47.5V35C22.5 34.337 22.7634 33.7011 23.2322 33.2322C23.7011 32.7634 24.337 32.5 25 32.5H28.2325L30.3663 30.3663ZM31.7675 32.5L29.6337 34.6337C29.3994 34.8682 29.0815 34.9999 28.75 35H25V47.5H45V35H41.25C40.9185 34.9999 40.6006 34.8682 40.3662 34.6337L38.2325 32.5H31.7675ZM35 38.125C34.337 38.125 33.7011 38.3884 33.2322 38.8572C32.7634 39.3261 32.5 39.962 32.5 40.625C32.5 41.288 32.7634 41.9239 33.2322 42.3928C33.7011 42.8616 34.337 43.125 35 43.125C35.663 43.125 36.2989 42.8616 36.7678 42.3928C37.2366 41.9239 37.5 41.288 37.5 40.625C37.5 39.962 37.2366 39.3261 36.7678 38.8572C36.2989 38.3884 35.663 38.125 35 38.125ZM30 40.625C30 39.2989 30.5268 38.0271 31.4645 37.0895C32.4021 36.1518 33.6739 35.625 35 35.625C36.3261 35.625 37.5979 36.1518 38.5355 37.0895C39.4732 38.0271 40 39.2989 40 40.625C40 41.9511 39.4732 43.2229 38.5355 44.1605C37.5979 45.0982 36.3261 45.625 35 45.625C33.6739 45.625 32.4021 45.0982 31.4645 44.1605C30.5268 43.2229 30 41.9511 30 40.625Z" fill="white"/>
<circle cx="65" cy="15" r="14.5" fill="white" stroke="#094624"/>
<path d="M56.4066 14.465C56.4066 12.745 56.6866 11.405 57.2466 10.445C57.8066 9.475 58.7866 8.99 60.1866 8.99C61.5766 8.99 62.5516 9.475 63.1116 10.445C63.6716 11.405 63.9516 12.745 63.9516 14.465C63.9516 16.215 63.6716 17.575 63.1116 18.545C62.5516 19.515 61.5766 20 60.1866 20C58.7866 20 57.8066 19.515 57.2466 18.545C56.6866 17.575 56.4066 16.215 56.4066 14.465ZM62.6016 14.465C62.6016 13.595 62.5416 12.86 62.4216 12.26C62.3116 11.65 62.0766 11.16 61.7166 10.79C61.3666 10.42 60.8566 10.235 60.1866 10.235C59.5066 10.235 58.9866 10.42 58.6266 10.79C58.2766 11.16 58.0416 11.65 57.9216 12.26C57.8116 12.86 57.7566 13.595 57.7566 14.465C57.7566 15.365 57.8116 16.12 57.9216 16.73C58.0416 17.34 58.2766 17.83 58.6266 18.2C58.9866 18.57 59.5066 18.755 60.1866 18.755C60.8566 18.755 61.3666 18.57 61.7166 18.2C62.0766 17.83 62.3116 17.34 62.4216 16.73C62.5416 16.12 62.6016 15.365 62.6016 14.465ZM65.6605 18.905C66.9305 17.885 67.9255 17.05 68.6455 16.4C69.3655 15.74 69.9705 15.055 70.4605 14.345C70.9605 13.625 71.2105 12.92 71.2105 12.23C71.2105 11.58 71.0505 11.07 70.7305 10.7C70.4205 10.32 69.9155 10.13 69.2155 10.13C68.5355 10.13 68.0055 10.345 67.6255 10.775C67.2555 11.195 67.0555 11.76 67.0255 12.47H65.7055C65.7455 11.35 66.0855 10.485 66.7255 9.875C67.3655 9.265 68.1905 8.96 69.2005 8.96C70.2305 8.96 71.0455 9.245 71.6455 9.815C72.2555 10.385 72.5605 11.17 72.5605 12.17C72.5605 13 72.3105 13.81 71.8105 14.6C71.3205 15.38 70.7605 16.07 70.1305 16.67C69.5005 17.26 68.6955 17.95 67.7155 18.74H72.8755V19.88H65.6605V18.905Z" fill="#094624"/>
<defs>
<linearGradient id="paint0_linear_712_15" x1="0" y1="40" x2="70" y2="40" gradientUnits="userSpaceOnUse">
<stop stop-color="#0F6631"/>
<stop offset="1" stop-color="#094624"/>
</linearGradient>
</defs>
</svg>
