<svg width="80" height="74" viewBox="0 0 80 74" fill="none" xmlns="http://www.w3.org/2000/svg">
<circle cx="35" cy="39" r="34.25" fill="url(#paint0_linear_713_17)" stroke="white" stroke-width="1.5"/>
<path d="M35.7812 31.1422L35.7699 31.133L34.7787 30.3211C34.0982 29.7634 33.2866 29.4929 32.468 29.5509C31.6493 29.609 30.8689 29.9924 30.2462 30.6425L27.8124 33.1849C27.6424 33.362 27.4261 33.4593 27.2024 33.4591H24.4374C24.1888 33.4591 23.9503 33.5794 23.7745 33.7937C23.5987 34.0079 23.4999 34.2985 23.4999 34.6015V43.7869C23.4999 44.4176 23.9199 44.9294 24.4374 44.9294H27.0474C27.1805 44.9293 27.3121 44.9638 27.4335 45.0305C27.5548 45.0972 27.6631 45.1946 27.7512 45.3163L30.6749 49.3682C31.1301 49.9986 31.7593 50.4035 32.4431 50.506C33.127 50.6085 33.818 50.4015 34.3849 49.9242L35.2399 49.2037L36.1574 49.5845C36.7244 49.8188 37.3379 49.8265 37.9087 49.6066C38.4795 49.3866 38.9779 48.9503 39.3312 48.3613L39.9187 47.3834L40.3262 47.4504C40.8905 47.5431 41.4647 47.4248 41.9727 47.1112C42.4807 46.7976 42.8986 46.3034 43.1712 45.6941L43.2324 45.557H47.5624C47.811 45.557 48.0495 45.4366 48.2253 45.2224C48.4011 45.0081 48.4999 44.7175 48.4999 44.4145V34.6031C48.4999 34.3001 48.4011 34.0095 48.2253 33.7952C48.0495 33.581 47.811 33.4606 47.5624 33.4606H44.7987C44.5738 33.4607 44.3564 33.3623 44.1862 33.1834L42.0749 30.9609C41.1943 30.0336 40.062 29.5386 38.8985 29.5724C37.7349 29.6062 36.6233 30.1663 35.7799 31.1437M33.7299 32.2176L34.4324 32.7934L31.9824 35.7958C31.7184 36.1194 31.51 36.504 31.3696 36.927C31.2291 37.3501 31.1594 37.803 31.1645 38.2593C31.1697 38.7156 31.2495 39.1661 31.3994 39.5843C31.5493 40.0025 31.7662 40.38 32.0374 40.6947L32.1224 40.7922C33.1349 41.9666 34.6999 42.058 35.7987 41.0054L38.3974 38.5194L41.7187 42.4114C41.867 42.585 41.9644 42.8133 41.9958 43.0611C42.0272 43.3088 41.9909 43.5623 41.8924 43.7824L41.8612 43.8494L41.8437 43.889L41.5249 44.6004C41.4341 44.8032 41.2949 44.9677 41.1257 45.0721C40.9565 45.1766 40.7654 45.216 40.5774 45.1853L39.6162 45.0284C39.4491 45.001 39.2791 45.029 39.124 45.1094C38.969 45.1898 38.8345 45.3197 38.7349 45.4854L37.8174 47.0117C37.6997 47.208 37.5337 47.3535 37.3435 47.4269C37.1533 47.5003 36.9489 47.4979 36.7599 47.42L35.3974 46.8563C35.2588 46.7989 35.1111 46.7817 34.9661 46.8063C34.8211 46.8309 34.6828 46.8966 34.5624 46.998L33.3199 48.0445C33.1308 48.2038 32.9003 48.2729 32.6721 48.2386C32.444 48.2044 32.2341 48.0691 32.0824 47.8587L29.1587 43.8067C28.8945 43.4412 28.5695 43.1485 28.2052 42.9481C27.841 42.7477 27.4458 42.6442 27.0462 42.6445H25.3749V35.744H27.2012C27.8723 35.7442 28.5214 35.4519 29.0312 34.9199L31.4662 32.3775C31.7775 32.0524 32.1676 31.8605 32.577 31.8314C32.9863 31.8022 33.3921 31.9373 33.7324 32.2161M43.8824 43.2736C43.8869 42.8055 43.8127 42.3413 43.6644 41.9096C43.5161 41.4778 43.2967 41.0877 43.0199 40.7632L39.8687 37.0708C40.0101 36.851 40.0806 36.5758 40.0668 36.297C40.053 36.0183 39.956 35.7553 39.7939 35.5578C39.6319 35.3604 39.4161 35.2421 39.1873 35.2253C38.9586 35.2085 38.7327 35.2944 38.5524 35.4668L37.9199 36.0715L37.8449 36.1431L34.6424 39.2095C34.4651 39.3792 34.2435 39.4654 34.0183 39.4523C33.7931 39.4391 33.5793 39.3275 33.4162 39.1379L33.3312 39.0389C33.2407 38.934 33.1684 38.8082 33.1184 38.6688C33.0684 38.5294 33.0417 38.3793 33.04 38.2272C33.0382 38.0751 33.0614 37.9241 33.1082 37.7831C33.155 37.642 33.2244 37.5138 33.3124 37.4059L37.0187 32.8665C37.5206 32.2516 38.1951 31.8914 38.9064 31.8586C39.6176 31.8258 40.3125 32.1229 40.8512 32.6898L42.9599 34.9108C43.4712 35.4488 44.1244 35.7446 44.7999 35.744H46.6249V43.2736H43.8824Z" fill="white"/>
<circle cx="65" cy="15" r="14.5" fill="white" stroke="#094624"/>
<path d="M56.0037 14.465C56.0037 12.745 56.2837 11.405 56.8437 10.445C57.4037 9.475 58.3837 8.99 59.7837 8.99C61.1737 8.99 62.1487 9.475 62.7087 10.445C63.2687 11.405 63.5487 12.745 63.5487 14.465C63.5487 16.215 63.2687 17.575 62.7087 18.545C62.1487 19.515 61.1737 20 59.7837 20C58.3837 20 57.4037 19.515 56.8437 18.545C56.2837 17.575 56.0037 16.215 56.0037 14.465ZM62.1987 14.465C62.1987 13.595 62.1387 12.86 62.0187 12.26C61.9087 11.65 61.6737 11.16 61.3137 10.79C60.9637 10.42 60.4537 10.235 59.7837 10.235C59.1037 10.235 58.5837 10.42 58.2237 10.79C57.8737 11.16 57.6387 11.65 57.5187 12.26C57.4087 12.86 57.3537 13.595 57.3537 14.465C57.3537 15.365 57.4087 16.12 57.5187 16.73C57.6387 17.34 57.8737 17.83 58.2237 18.2C58.5837 18.57 59.1037 18.755 59.7837 18.755C60.4537 18.755 60.9637 18.57 61.3137 18.2C61.6737 17.83 61.9087 17.34 62.0187 16.73C62.1387 16.12 62.1987 15.365 62.1987 14.465ZM65.0927 17.585V16.55L70.3577 9.26H71.9927V16.4H73.4927V17.585H71.9927V20H70.6427V17.585H65.0927ZM70.7027 10.685L66.6677 16.4H70.7027V10.685Z" fill="#094624"/>
<defs>
<linearGradient id="paint0_linear_713_17" x1="0" y1="39" x2="70" y2="39" gradientUnits="userSpaceOnUse">
<stop stop-color="#0F6631"/>
<stop offset="1" stop-color="#094624"/>
</linearGradient>
</defs>
</svg>
