<svg width="80" height="80" viewBox="0 0 80 80" fill="none" xmlns="http://www.w3.org/2000/svg">
<circle cx="35" cy="45" r="34" fill="url(#paint0_linear_712_14)" stroke="white" stroke-width="2"/>
<path d="M31.25 44.375C31.5815 44.375 31.8995 44.2433 32.1339 44.0089C32.3683 43.7745 32.5 43.4565 32.5 43.125C32.5 42.7935 32.3683 42.4755 32.1339 42.2411C31.8995 42.0067 31.5815 41.875 31.25 41.875C30.9185 41.875 30.6005 42.0067 30.3661 42.2411C30.1317 42.4755 30 42.7935 30 43.125C30 43.4565 30.1317 43.7745 30.3661 44.0089C30.6005 44.2433 30.9185 44.375 31.25 44.375ZM33.75 43.125C33.75 42.7935 33.8817 42.4755 34.1161 42.2411C34.3505 42.0067 34.6685 41.875 35 41.875H38.75C39.0815 41.875 39.3995 42.0067 39.6339 42.2411C39.8683 42.4755 40 42.7935 40 43.125C40 43.4565 39.8683 43.7745 39.6339 44.0089C39.3995 44.2433 39.0815 44.375 38.75 44.375H35C34.6685 44.375 34.3505 44.2433 34.1161 44.0089C33.8817 43.7745 33.75 43.4565 33.75 43.125ZM35 45.625C34.6685 45.625 34.3505 45.7567 34.1161 45.9911C33.8817 46.2255 33.75 46.5435 33.75 46.875C33.75 47.2065 33.8817 47.5245 34.1161 47.7589C34.3505 47.9933 34.6685 48.125 35 48.125H38.75C39.0815 48.125 39.3995 47.9933 39.6339 47.7589C39.8683 47.5245 40 47.2065 40 46.875C40 46.5435 39.8683 46.2255 39.6339 45.9911C39.3995 45.7567 39.0815 45.625 38.75 45.625H35ZM35 49.375C34.6685 49.375 34.3505 49.5067 34.1161 49.7411C33.8817 49.9755 33.75 50.2935 33.75 50.625C33.75 50.9565 33.8817 51.2745 34.1161 51.5089C34.3505 51.7433 34.6685 51.875 35 51.875H38.75C39.0815 51.875 39.3995 51.7433 39.6339 51.5089C39.8683 51.2745 40 50.9565 40 50.625C40 50.2935 39.8683 49.9755 39.6339 49.7411C39.3995 49.5067 39.0815 49.375 38.75 49.375H35ZM32.5 46.875C32.5 47.2065 32.3683 47.5245 32.1339 47.7589C31.8995 47.9933 31.5815 48.125 31.25 48.125C30.9185 48.125 30.6005 47.9933 30.3661 47.7589C30.1317 47.5245 30 47.2065 30 46.875C30 46.5435 30.1317 46.2255 30.3661 45.9911C30.6005 45.7567 30.9185 45.625 31.25 45.625C31.5815 45.625 31.8995 45.7567 32.1339 45.9911C32.3683 46.2255 32.5 46.5435 32.5 46.875ZM31.25 51.875C31.5815 51.875 31.8995 51.7433 32.1339 51.5089C32.3683 51.2745 32.5 50.9565 32.5 50.625C32.5 50.2935 32.3683 49.9755 32.1339 49.7411C31.8995 49.5067 31.5815 49.375 31.25 49.375C30.9185 49.375 30.6005 49.5067 30.3661 49.7411C30.1317 49.9755 30 50.2935 30 50.625C30 50.9565 30.1317 51.2745 30.3661 51.5089C30.6005 51.7433 30.9185 51.875 31.25 51.875Z" fill="white"/>
<path d="M31.25 32.5C30.9185 32.5 30.6005 32.6317 30.3661 32.8661C30.1317 33.1005 30 33.4185 30 33.75H27.5C26.837 33.75 26.2011 34.0134 25.7322 34.4822C25.2634 34.9511 25 35.587 25 36.25V55C25 55.663 25.2634 56.2989 25.7322 56.7678C26.2011 57.2366 26.837 57.5 27.5 57.5H42.5C43.163 57.5 43.7989 57.2366 44.2678 56.7678C44.7366 56.2989 45 55.663 45 55V36.25C45 35.587 44.7366 34.9511 44.2678 34.4822C43.7989 34.0134 43.163 33.75 42.5 33.75H40C40 33.4185 39.8683 33.1005 39.6339 32.8661C39.3995 32.6317 39.0815 32.5 38.75 32.5H31.25ZM40 36.25H42.5V55H27.5V36.25H30V37.5C30 37.8315 30.1317 38.1495 30.3661 38.3839C30.6005 38.6183 30.9185 38.75 31.25 38.75H38.75C39.0815 38.75 39.3995 38.6183 39.6339 38.3839C39.8683 38.1495 40 37.8315 40 37.5V36.25ZM32.5 36.25V35H37.5V36.25H32.5Z" fill="white"/>
<circle cx="65" cy="15" r="14.5" fill="white" stroke="#094624"/>
<path d="M58.3182 14.465C58.3182 12.745 58.5982 11.405 59.1582 10.445C59.7182 9.475 60.6982 8.99 62.0982 8.99C63.4882 8.99 64.4632 9.475 65.0232 10.445C65.5832 11.405 65.8632 12.745 65.8632 14.465C65.8632 16.215 65.5832 17.575 65.0232 18.545C64.4632 19.515 63.4882 20 62.0982 20C60.6982 20 59.7182 19.515 59.1582 18.545C58.5982 17.575 58.3182 16.215 58.3182 14.465ZM64.5132 14.465C64.5132 13.595 64.4532 12.86 64.3332 12.26C64.2232 11.65 63.9882 11.16 63.6282 10.79C63.2782 10.42 62.7682 10.235 62.0982 10.235C61.4182 10.235 60.8982 10.42 60.5382 10.79C60.1882 11.16 59.9532 11.65 59.8332 12.26C59.7232 12.86 59.6682 13.595 59.6682 14.465C59.6682 15.365 59.7232 16.12 59.8332 16.73C59.9532 17.34 60.1882 17.83 60.5382 18.2C60.8982 18.57 61.4182 18.755 62.0982 18.755C62.7682 18.755 63.2782 18.57 63.6282 18.2C63.9882 17.83 64.2232 17.34 64.3332 16.73C64.4532 16.12 64.5132 15.365 64.5132 14.465ZM67.3771 10.4V9.155H70.1971V20H68.8171V10.4H67.3771Z" fill="#094624"/>
<defs>
<linearGradient id="paint0_linear_712_14" x1="0" y1="45" x2="70" y2="45" gradientUnits="userSpaceOnUse">
<stop stop-color="#0F6631"/>
<stop offset="1" stop-color="#094624"/>
</linearGradient>
</defs>
</svg>
