<svg width="80" height="73" viewBox="0 0 80 73" fill="none" xmlns="http://www.w3.org/2000/svg">
<circle cx="35" cy="38" r="34.25" fill="url(#paint0_linear_713_16)" stroke="white" stroke-width="1.5"/>
<path d="M44.3045 26.6766C44.4804 26.828 44.6106 27.0254 44.6806 27.2467C44.7507 27.4679 44.7577 27.7043 44.701 27.9294L38.5583 52.3236C38.5004 52.5524 38.379 52.7602 38.2081 52.9228C38.0371 53.0855 37.8236 53.1965 37.5923 53.2429C37.3609 53.2893 37.1211 53.2693 36.9007 53.1852C36.6802 53.101 36.488 52.9562 36.3464 52.7674L29.6131 43.7577L19.6985 38.4485C19.4904 38.3369 19.3182 38.1686 19.2018 37.9632C19.0853 37.7577 19.0295 37.5235 19.0407 37.2876C19.0519 37.0518 19.1297 36.8239 19.265 36.6304C19.4004 36.4369 19.5878 36.2857 19.8055 36.1943L43.0065 26.472C43.2205 26.3822 43.4553 26.3538 43.6846 26.39C43.9138 26.4261 44.1285 26.5254 44.3045 26.6766ZM32.0491 42.8423L36.7759 49.1665L40.9843 32.4538L32.0491 42.8423ZM39.0889 30.8236L23.1936 37.4845L30.1538 41.2121L39.0889 30.8236Z" fill="white"/>
<circle cx="65" cy="15" r="14.5" fill="white" stroke="#094624"/>
<path d="M56.304 14.465C56.304 12.745 56.584 11.405 57.144 10.445C57.704 9.475 58.684 8.99 60.084 8.99C61.474 8.99 62.449 9.475 63.009 10.445C63.569 11.405 63.849 12.745 63.849 14.465C63.849 16.215 63.569 17.575 63.009 18.545C62.449 19.515 61.474 20 60.084 20C58.684 20 57.704 19.515 57.144 18.545C56.584 17.575 56.304 16.215 56.304 14.465ZM62.499 14.465C62.499 13.595 62.439 12.86 62.319 12.26C62.209 11.65 61.974 11.16 61.614 10.79C61.264 10.42 60.754 10.235 60.084 10.235C59.404 10.235 58.884 10.42 58.524 10.79C58.174 11.16 57.939 11.65 57.819 12.26C57.709 12.86 57.654 13.595 57.654 14.465C57.654 15.365 57.709 16.12 57.819 16.73C57.939 17.34 58.174 17.83 58.524 18.2C58.884 18.57 59.404 18.755 60.084 18.755C60.754 18.755 61.264 18.57 61.614 18.2C61.974 17.83 62.209 17.34 62.319 16.73C62.439 16.12 62.499 15.365 62.499 14.465ZM65.693 11.885C65.763 10.965 66.118 10.245 66.758 9.725C67.398 9.205 68.228 8.945 69.248 8.945C69.928 8.945 70.513 9.07 71.003 9.32C71.503 9.56 71.878 9.89 72.128 10.31C72.388 10.73 72.518 11.205 72.518 11.735C72.518 12.355 72.338 12.89 71.978 13.34C71.628 13.79 71.168 14.08 70.598 14.21V14.285C71.248 14.445 71.763 14.76 72.143 15.23C72.523 15.7 72.713 16.315 72.713 17.075C72.713 17.645 72.583 18.16 72.323 18.62C72.063 19.07 71.673 19.425 71.153 19.685C70.633 19.945 70.008 20.075 69.278 20.075C68.218 20.075 67.348 19.8 66.668 19.25C65.988 18.69 65.608 17.9 65.528 16.88H66.848C66.918 17.48 67.163 17.97 67.583 18.35C68.003 18.73 68.563 18.92 69.263 18.92C69.963 18.92 70.493 18.74 70.853 18.38C71.223 18.01 71.408 17.535 71.408 16.955C71.408 16.205 71.158 15.665 70.658 15.335C70.158 15.005 69.403 14.84 68.393 14.84H68.048V13.7H68.408C69.328 13.69 70.023 13.54 70.493 13.25C70.963 12.95 71.198 12.49 71.198 11.87C71.198 11.34 71.023 10.915 70.673 10.595C70.333 10.275 69.843 10.115 69.203 10.115C68.583 10.115 68.083 10.275 67.703 10.595C67.323 10.915 67.098 11.345 67.028 11.885H65.693Z" fill="#094624"/>
<defs>
<linearGradient id="paint0_linear_713_16" x1="0" y1="38" x2="70" y2="38" gradientUnits="userSpaceOnUse">
<stop stop-color="#0F6631"/>
<stop offset="1" stop-color="#094624"/>
</linearGradient>
</defs>
</svg>
